#N canvas 380 49 1178 964 10;
#X floatatom 159 162 5 0 0 0 - - -;
#X obj 159 124 unpack i;
#X obj 221 15 dumpOSC 7300;
#X obj 293 127 unpack i;
#X floatatom 295 167 5 0 0 0 - - -;
#X obj 158 79 OSCroute /Music;
#X obj 701 125 unpack i;
#X floatatom 702 163 5 0 0 0 - - -;
#X obj 1172 128 unpack i;
#X floatatom 1169 167 5 0 0 0 - - -;
#X obj 1164 74 OSCroute /Sakura;
#X obj 159 219 select 0 1;
#X msg 65 282 start;
#X obj 160 352 readsf~ 2;
#X msg 152 286 open BGM.wav;
#X obj 696 892 output~;
#X msg 65 328 stop;
#X msg 280 303 start;
#X obj 279 396 readsf~ 2;
#X msg 289 347 open 1.wav;
#X msg 368 310 start;
#X obj 369 398 readsf~ 2;
#X msg 447 312 start;
#X obj 453 399 readsf~ 2;
#X msg 538 312 start;
#X obj 539 399 readsf~ 2;
#X msg 627 311 start;
#X obj 626 400 readsf~ 2;
#X msg 281 486 start;
#X obj 282 574 readsf~ 2;
#X msg 377 486 start;
#X obj 372 576 readsf~ 2;
#X msg 454 491 start;
#X obj 456 577 readsf~ 2;
#X msg 545 493 start;
#X obj 542 577 readsf~ 2;
#X msg 630 487 start;
#X obj 629 578 readsf~ 2;
#X msg 280 668 start;
#X obj 280 755 readsf~ 2;
#X msg 371 667 start;
#X obj 370 757 readsf~ 2;
#X msg 456 664 start;
#X obj 454 758 readsf~ 2;
#X msg 540 664 start;
#X obj 540 758 readsf~ 2;
#X msg 633 666 start;
#X obj 627 759 readsf~ 2;
#X msg 368 349 open 2.wav;
#X msg 452 350 open 3.wav;
#X msg 538 350 open 4.wav;
#X msg 625 351 open 5.wav;
#X msg 281 525 open 6.wav;
#X msg 371 527 open 7.wav;
#X msg 455 528 open 8.wav;
#X msg 541 528 open 9.wav;
#X msg 628 529 open 10.wav;
#X msg 279 706 open 11.wav;
#X msg 369 708 open 12.wav;
#X msg 453 709 open 13.wav;
#X msg 539 709 open 14.wav;
#X msg 626 710 open 15.wav;
#X obj 277 264 del 250;
#X obj 350 265 del 250;
#X obj 446 264 del 250;
#X obj 539 267 del 250;
#X obj 621 268 del 250;
#X obj 282 452 del 250;
#X obj 374 453 del 250;
#X obj 455 452 del 250;
#X obj 540 453 del 250;
#X obj 631 450 del 250;
#X obj 277 621 del 250;
#X obj 376 617 del 250;
#X obj 455 619 del 250;
#X obj 543 621 del 250;
#X obj 630 624 del 250;
#X msg 1180 255 start;
#X obj 1178 364 readsf~ 2;
#X obj 1181 214 del 250;
#X msg 1176 296 open sakura.wav;
#X obj 65 250 del 250;
#X obj 293 79 OSCroute /Moon;
#X obj 704 78 OSCroute /Lotus;
#X obj 283 214 select 0 1 2 3 4 5 6 7 8 9 10 11 12 13 14;
#X msg 718 310 start;
#X obj 722 402 readsf~ 2;
#X msg 820 316 start;
#X obj 816 407 readsf~ 2;
#X msg 899 318 start;
#X obj 905 405 readsf~ 2;
#X msg 990 318 start;
#X obj 991 405 readsf~ 2;
#X msg 1079 317 start;
#X obj 1078 406 readsf~ 2;
#X msg 733 492 start;
#X obj 734 581 readsf~ 2;
#X msg 821 493 start;
#X obj 824 582 readsf~ 2;
#X msg 906 497 start;
#X obj 914 580 readsf~ 2;
#X msg 997 499 start;
#X obj 994 583 readsf~ 2;
#X msg 1082 493 start;
#X obj 1081 584 readsf~ 2;
#X obj 729 270 del 250;
#X obj 817 271 del 250;
#X obj 898 270 del 250;
#X obj 991 273 del 250;
#X obj 1073 274 del 250;
#X obj 734 458 del 250;
#X obj 826 459 del 250;
#X obj 907 458 del 250;
#X obj 992 459 del 250;
#X obj 1083 456 del 250;
#X msg 739 673 start;
#X obj 740 761 readsf~ 2;
#X msg 830 679 start;
#X obj 827 774 readsf~ 2;
#X obj 740 639 del 250;
#X obj 826 638 del 250;
#X obj 702 198 select 0 1 2 3 4 5 6 7 8 9 10 11 12;
#X msg 926 673 start;
#X obj 961 779 readsf~ 2;
#X obj 924 633 del 250;
#X msg 719 355 open bip_0.wav;
#X msg 820 355 open bip_1.wav;
#X msg 904 356 open bip_2.wav;
#X msg 986 357 open bip_3.wav;
#X msg 1077 357 open bip_4.wav;
#X msg 733 531 open bip_5.wav;
#X msg 824 534 open bip_6.wav;
#X msg 907 534 open bip_7.wav;
#X msg 993 534 open bip_8.wav;
#X msg 1080 535 open bip_9.wav;
#X msg 739 717 open bip_10.wav;
#X msg 846 717 open bip_11.wav;
#X msg 953 722 open bip_12.wav;
#X connect 0 0 11 0;
#X connect 1 0 0 0;
#X connect 2 0 5 0;
#X connect 2 0 10 0;
#X connect 2 0 82 0;
#X connect 2 0 83 0;
#X connect 3 0 4 0;
#X connect 4 0 84 0;
#X connect 5 0 1 0;
#X connect 6 0 7 0;
#X connect 7 0 121 0;
#X connect 8 0 9 0;
#X connect 9 0 79 0;
#X connect 9 0 80 0;
#X connect 10 0 8 0;
#X connect 11 0 16 0;
#X connect 11 1 14 0;
#X connect 11 1 81 0;
#X connect 12 0 13 0;
#X connect 13 0 15 0;
#X connect 13 1 15 1;
#X connect 14 0 13 0;
#X connect 16 0 13 0;
#X connect 17 0 18 0;
#X connect 18 0 15 0;
#X connect 18 1 15 1;
#X connect 19 0 18 0;
#X connect 20 0 21 0;
#X connect 21 0 15 0;
#X connect 21 1 15 1;
#X connect 22 0 23 0;
#X connect 23 0 15 0;
#X connect 23 1 15 1;
#X connect 24 0 25 0;
#X connect 25 0 15 0;
#X connect 25 1 15 1;
#X connect 26 0 27 0;
#X connect 27 0 15 0;
#X connect 27 1 15 1;
#X connect 28 0 29 0;
#X connect 29 0 15 0;
#X connect 29 1 15 1;
#X connect 30 0 31 0;
#X connect 31 0 15 0;
#X connect 31 1 15 1;
#X connect 32 0 33 0;
#X connect 33 0 15 0;
#X connect 33 1 15 1;
#X connect 34 0 35 0;
#X connect 35 0 15 0;
#X connect 35 1 15 1;
#X connect 36 0 37 0;
#X connect 37 0 15 0;
#X connect 37 1 15 1;
#X connect 38 0 39 0;
#X connect 39 0 15 0;
#X connect 39 1 15 1;
#X connect 40 0 41 0;
#X connect 41 0 15 0;
#X connect 41 1 15 1;
#X connect 42 0 43 0;
#X connect 43 0 15 0;
#X connect 43 1 15 1;
#X connect 44 0 45 0;
#X connect 45 0 15 0;
#X connect 45 1 15 1;
#X connect 46 0 47 0;
#X connect 47 0 15 0;
#X connect 47 1 15 1;
#X connect 48 0 21 0;
#X connect 49 0 23 0;
#X connect 50 0 25 0;
#X connect 51 0 27 0;
#X connect 52 0 29 0;
#X connect 53 0 31 0;
#X connect 54 0 33 0;
#X connect 55 0 35 0;
#X connect 56 0 37 0;
#X connect 57 0 39 0;
#X connect 58 0 41 0;
#X connect 59 0 43 0;
#X connect 60 0 45 0;
#X connect 61 0 47 0;
#X connect 62 0 17 0;
#X connect 63 0 20 0;
#X connect 64 0 22 0;
#X connect 65 0 24 0;
#X connect 66 0 26 0;
#X connect 67 0 28 0;
#X connect 68 0 30 0;
#X connect 69 0 32 0;
#X connect 70 0 34 0;
#X connect 71 0 36 0;
#X connect 72 0 38 0;
#X connect 73 0 40 0;
#X connect 74 0 42 0;
#X connect 75 0 44 0;
#X connect 76 0 46 0;
#X connect 77 0 78 0;
#X connect 78 0 15 0;
#X connect 78 1 15 1;
#X connect 79 0 77 0;
#X connect 80 0 78 0;
#X connect 81 0 12 0;
#X connect 82 0 3 0;
#X connect 83 0 6 0;
#X connect 84 0 19 0;
#X connect 84 0 62 0;
#X connect 84 1 48 0;
#X connect 84 1 63 0;
#X connect 84 2 49 0;
#X connect 84 2 64 0;
#X connect 84 3 50 0;
#X connect 84 3 65 0;
#X connect 84 4 51 0;
#X connect 84 4 66 0;
#X connect 84 5 52 0;
#X connect 84 5 67 0;
#X connect 84 6 53 0;
#X connect 84 6 68 0;
#X connect 84 7 54 0;
#X connect 84 7 69 0;
#X connect 84 8 55 0;
#X connect 84 8 70 0;
#X connect 84 9 56 0;
#X connect 84 9 71 0;
#X connect 84 10 57 0;
#X connect 84 10 72 0;
#X connect 84 11 58 0;
#X connect 84 11 73 0;
#X connect 84 12 59 0;
#X connect 84 12 74 0;
#X connect 84 13 60 0;
#X connect 84 13 75 0;
#X connect 84 14 61 0;
#X connect 84 14 76 0;
#X connect 85 0 86 0;
#X connect 86 0 15 0;
#X connect 86 1 15 1;
#X connect 87 0 88 0;
#X connect 88 0 15 0;
#X connect 88 1 15 1;
#X connect 89 0 90 0;
#X connect 90 0 15 0;
#X connect 90 1 15 1;
#X connect 91 0 92 0;
#X connect 92 0 15 0;
#X connect 92 1 15 1;
#X connect 93 0 94 0;
#X connect 94 0 15 0;
#X connect 94 1 15 1;
#X connect 95 0 96 0;
#X connect 96 0 15 0;
#X connect 96 1 15 1;
#X connect 97 0 98 0;
#X connect 98 0 15 0;
#X connect 98 1 15 1;
#X connect 99 0 100 0;
#X connect 100 0 15 0;
#X connect 100 1 15 1;
#X connect 101 0 102 0;
#X connect 102 0 15 0;
#X connect 102 1 15 1;
#X connect 103 0 104 0;
#X connect 104 0 15 0;
#X connect 104 1 15 1;
#X connect 105 0 85 0;
#X connect 106 0 87 0;
#X connect 107 0 89 0;
#X connect 108 0 91 0;
#X connect 109 0 93 0;
#X connect 110 0 95 0;
#X connect 111 0 97 0;
#X connect 112 0 99 0;
#X connect 113 0 101 0;
#X connect 114 0 103 0;
#X connect 115 0 116 0;
#X connect 116 0 15 0;
#X connect 116 1 15 1;
#X connect 117 0 118 0;
#X connect 118 0 15 0;
#X connect 118 1 15 1;
#X connect 119 0 115 0;
#X connect 120 0 117 0;
#X connect 121 0 125 0;
#X connect 121 0 105 0;
#X connect 121 1 126 0;
#X connect 121 1 106 0;
#X connect 121 2 127 0;
#X connect 121 2 107 0;
#X connect 121 3 128 0;
#X connect 121 3 108 0;
#X connect 121 4 129 0;
#X connect 121 4 109 0;
#X connect 121 5 130 0;
#X connect 121 5 110 0;
#X connect 121 6 131 0;
#X connect 121 6 111 0;
#X connect 121 7 132 0;
#X connect 121 7 112 0;
#X connect 121 8 133 0;
#X connect 121 8 113 0;
#X connect 121 9 134 0;
#X connect 121 9 114 0;
#X connect 121 10 119 0;
#X connect 121 10 135 0;
#X connect 121 11 120 0;
#X connect 121 11 136 0;
#X connect 121 12 124 0;
#X connect 121 12 137 0;
#X connect 122 0 123 0;
#X connect 123 0 15 0;
#X connect 123 1 15 1;
#X connect 124 0 122 0;
#X connect 125 0 86 0;
#X connect 126 0 88 0;
#X connect 127 0 90 0;
#X connect 128 0 92 0;
#X connect 129 0 94 0;
#X connect 130 0 96 0;
#X connect 131 0 98 0;
#X connect 132 0 100 0;
#X connect 133 0 102 0;
#X connect 134 0 104 0;
#X connect 135 0 116 0;
#X connect 136 0 118 0;
#X connect 137 0 123 0;
